<svg id="Capa_1" data-name="Capa 1" xmlns="http://www.w3.org/2000/svg" viewBox="0 0 33.67 33.67"><defs><style>.cls-1{fill:#056c8a;}</style></defs><title>Iconos SVG</title><path class="cls-1" d="M23.15,10.53H6.2a1.41,1.41,0,0,1-1.09-2.3l5-6.11A1.41,1.41,0,1,1,12.29,3.9L9.17,7.71h14a1.41,1.41,0,1,1,0,2.82Z"/><path class="cls-1" d="M10.64,16.64a1.41,1.41,0,0,1-1.14-.58L5.06,9.95A1.41,1.41,0,0,1,7.34,8.29l4.45,6.11a1.41,1.41,0,0,1-1.14,2.24Z"/><path class="cls-1" d="M22.47,32.07a1.41,1.41,0,0,1-1.09-2.3L24.49,26h-14a1.41,1.41,0,1,1,0-2.82H27.47a1.41,1.41,0,0,1,1.09,2.3l-5,6.11A1.41,1.41,0,0,1,22.47,32.07Z"/><path class="cls-1" d="M27.47,26a1.41,1.41,0,0,1-1.14-.58l-4.45-6.11a1.41,1.41,0,0,1,2.28-1.66l4.45,6.11A1.41,1.41,0,0,1,27.47,26Z"/></svg>
