<svg id="Capa_1" data-name="Capa 1" xmlns="http://www.w3.org/2000/svg" viewBox="0 0 25.33 25.33"><defs><style>.cls-1{fill:#4d4d4d;}</style></defs><title>Iconos SVG</title><path class="cls-1" d="M12.67,1.67a11,11,0,1,0,11,11A11,11,0,0,0,12.67,1.67ZM13.5,22v-.74a.83.83,0,1,0-1.66,0V22a9.35,9.35,0,0,1-8.47-8.5h.72a.83.83,0,0,0,0-1.66H3.37a9.35,9.35,0,0,1,8.47-8.44v.69a.83.83,0,1,0,1.66,0V3.37A9.35,9.35,0,0,1,22,11.81h-.71a.83.83,0,1,0,0,1.66H22A9.35,9.35,0,0,1,13.5,22Z"/><path class="cls-1" d="M17.61,7.31l-4.92,5.15h0l-.18,0L8.37,9.37a.62.62,0,0,0-.75,1l4.11,3.11a.93.93,0,0,0,1.86-.08s0,0,0-.07l4.92-5.15a.62.62,0,1,0-.9-.86Z"/></svg>