<svg id="Capa_1" data-name="Capa 1" xmlns="http://www.w3.org/2000/svg" viewBox="0 0 42.38 48.88"><defs><style>.cls-1{fill:#056c8a;}.cls-2{fill:#fff;}</style></defs><title>IconoPlane</title><path class="cls-1" d="M21.38,1a19.2,19.2,0,0,1,19.2,19.2c0,8.67-13.2,21.68-17.52,25.77a2.39,2.39,0,0,1-3.36,0C15.38,41.87,2.18,28.86,2.18,20.19A19.2,19.2,0,0,1,21.38,1Z"/><path class="cls-2" d="M33.41,21.11,31.59,20l-2-1.12L28,18l-2-1.16-1.4-.77a45.9,45.9,0,0,0-.44-5.42,23.15,23.15,0,0,0-.7-2.86c-.16-.33-.59-1.38-1.42-1.4s-1.34,1-1.5,1.41a16.12,16.12,0,0,0-.76,2.86A49,49,0,0,0,19.13,16l-1.35.75-2,1.07-1.63.87-2,1.07-1.86,1a.68.68,0,0,0-.39.57V24c0,.26,0,.42.24.56a.66.66,0,0,0,.61.09l8.8-2.87q.12,4,.23,7.93l-4.34,2.36a.27.27,0,0,0-.21.34l0,1.4a.66.66,0,0,0,.16.33c0,.06.2,0,.31,0l5.09-1.74a1.06,1.06,0,0,0,1,.55,1.19,1.19,0,0,0,1-.49l5,1.79c0,.06,0,.06.1,0a.15.15,0,0,0,.2,0,.37.37,0,0,0,.14-.29l.05-1.5a.33.33,0,0,0-.22-.29l-4.24-2.47.47-8L32.87,25l.21,0a.55.55,0,0,0,.38-.1.62.62,0,0,0,.23-.54l.06-2.7A.68.68,0,0,0,33.41,21.11Z"/></svg>