<svg id="Capa_1" data-name="Capa 1" xmlns="http://www.w3.org/2000/svg" viewBox="0 0 62.75 62.75"><defs><style>.cls-1{fill:#fff;}.cls-2{fill:#056c8a;}</style></defs><title>Iconos SVG</title><circle class="cls-1" cx="31.38" cy="31.38" r="29"/><path class="cls-2" d="M31.38,7a19.2,19.2,0,0,1,19.2,19.2c0,8.67-12.85,23.62-17.52,28.77a2.27,2.27,0,0,1-3.36,0C25,49.8,12.18,34.86,12.18,26.19A19.2,19.2,0,0,1,31.38,7Z"/><path class="cls-1" d="M39.92,21.61c0-.13,0-.26,0-.4,0-3.17-2.28-5.74-5.09-5.74a5,5,0,0,0-4.44,2.94,4.58,4.58,0,0,0-2-.46,5.09,5.09,0,0,0-4.62,3.36A5.59,5.59,0,0,0,19.59,27c0,3.17,2.28,5.74,5.09,5.74H38.07c2.81,0,5.09-2.57,5.09-5.74A5.77,5.77,0,0,0,39.92,21.61Z"/></svg>